<?xml version="1.0" encoding="UTF-8" standalone="no"?>
<!DOCTYPE svg PUBLIC "-//W3C//DTD SVG 1.1//EN"
 "http://www.w3.org/Graphics/SVG/1.1/DTD/svg11.dtd">
<!-- Generated by graphviz version 2.40.1 (20161225.0304)
 -->
<!-- Title: dependencies Pages: 1 -->
<svg width="1715pt" height="211pt"
 viewBox="0.00 0.00 1715.00 211.00" xmlns="http://www.w3.org/2000/svg" xmlns:xlink="http://www.w3.org/1999/xlink">
<g id="graph0" class="graph" transform="scale(1 1) rotate(0) translate(4 207)">
<title>dependencies</title>
<polygon fill="#ffffff" stroke="transparent" points="-4,4 -4,-207 1711,-207 1711,4 -4,4"/>
<text text-anchor="start" x="832.5091" y="-42.4" font-family="sans-serif" font-weight="bold" font-size="14.00" fill="#000000">Legend</text>
<polygon fill="#ffffb3" stroke="transparent" points="619.5,-10 619.5,-30 639.5,-30 639.5,-10 619.5,-10"/>
<text text-anchor="start" x="643.129" y="-15.4" font-family="sans-serif" font-size="14.00" fill="#000000"> &#160;Declarations</text>
<polygon fill="#8dd3c7" stroke="transparent" points="732.5,-10 732.5,-30 752.5,-30 752.5,-10 732.5,-10"/>
<text text-anchor="start" x="756.2251" y="-15.4" font-family="sans-serif" font-size="14.00" fill="#000000"> &#160;Module</text>
<polygon fill="#80b1d3" stroke="transparent" points="818.5,-10 818.5,-30 838.5,-30 838.5,-10 818.5,-10"/>
<text text-anchor="start" x="842.2812" y="-15.4" font-family="sans-serif" font-size="14.00" fill="#000000"> &#160;Bootstrap</text>
<polygon fill="#fdb462" stroke="transparent" points="915.5,-10 915.5,-30 935.5,-30 935.5,-10 915.5,-10"/>
<text text-anchor="start" x="939.1732" y="-15.4" font-family="sans-serif" font-size="14.00" fill="#000000"> &#160;Providers</text>
<polygon fill="#fb8072" stroke="transparent" points="1011.5,-10 1011.5,-30 1031.5,-30 1031.5,-10 1011.5,-10"/>
<text text-anchor="start" x="1035.2258" y="-15.4" font-family="sans-serif" font-size="14.00" fill="#000000"> &#160;Exports</text>
<g id="clust1" class="cluster">
<title>cluster_CoreModule</title>
<polygon fill="none" stroke="#000000" stroke-dasharray="1,5" points="8,-70 8,-195 1699,-195 1699,-70 8,-70"/>
</g>
<g id="clust6" class="cluster">
<title>cluster_CoreModule_providers</title>
<polygon fill="none" stroke="#000000" points="16,-78 16,-130 1691,-130 1691,-78 16,-78"/>
</g>
<!-- ApiPrefixInterceptor -->
<g id="node1" class="node">
<title>ApiPrefixInterceptor</title>
<ellipse fill="#fdb462" stroke="#000000" cx="1592" cy="-104" rx="91.4481" ry="18"/>
<text text-anchor="middle" x="1592" y="-99.8" font-family="Times,serif" font-size="14.00" fill="#000000">ApiPrefixInterceptor</text>
</g>
<!-- CoreModule -->
<g id="node10" class="node">
<title>CoreModule</title>
<polygon fill="#8dd3c7" stroke="#000000" points="996.2619,-187 993.2619,-191 972.2619,-191 969.2619,-187 909.7381,-187 909.7381,-151 996.2619,-151 996.2619,-187"/>
<text text-anchor="middle" x="953" y="-164.8" font-family="Times,serif" font-size="14.00" fill="#000000">CoreModule</text>
</g>
<!-- ApiPrefixInterceptor&#45;&gt;CoreModule -->
<g id="edge1" class="edge">
<title>ApiPrefixInterceptor&#45;&gt;CoreModule</title>
<path fill="none" stroke="#000000" d="M1622.4913,-121.2456C1622.4913,-143.6688 1622.4913,-180 1622.4913,-180 1622.4913,-180 1006.4113,-180 1006.4113,-180"/>
<polygon fill="#000000" stroke="#000000" points="1006.4114,-176.5001 996.4113,-180 1006.4113,-183.5001 1006.4114,-176.5001"/>
</g>
<!-- ApiPrefixInterceptor&#45;&gt;CoreModule -->
<g id="edge2" class="edge">
<title>ApiPrefixInterceptor&#45;&gt;CoreModule</title>
<path fill="none" stroke="#000000" d="M1561.5087,-121.0562C1561.5087,-141.4891 1561.5087,-173 1561.5087,-173 1561.5087,-173 1006.2746,-173 1006.2746,-173"/>
<polygon fill="#000000" stroke="#000000" points="1006.2747,-169.5001 996.2746,-173 1006.2746,-176.5001 1006.2747,-169.5001"/>
</g>
<!-- AuthenticationService -->
<g id="node2" class="node">
<title>AuthenticationService</title>
<ellipse fill="#fdb462" stroke="#000000" cx="1385" cy="-104" rx="97.2683" ry="18"/>
<text text-anchor="middle" x="1385" y="-99.8" font-family="Times,serif" font-size="14.00" fill="#000000">AuthenticationService</text>
</g>
<!-- AuthenticationService&#45;&gt;CoreModule -->
<g id="edge3" class="edge">
<title>AuthenticationService&#45;&gt;CoreModule</title>
<path fill="none" stroke="#000000" d="M1385,-122.2667C1385,-140.5552 1385,-166 1385,-166 1385,-166 1006.3998,-166 1006.3998,-166"/>
<polygon fill="#000000" stroke="#000000" points="1006.3998,-162.5001 996.3998,-166 1006.3997,-169.5001 1006.3998,-162.5001"/>
</g>
<!-- CitiesCountiesService -->
<g id="node3" class="node">
<title>CitiesCountiesService</title>
<ellipse fill="#fdb462" stroke="#000000" cx="1173" cy="-104" rx="96.7215" ry="18"/>
<text text-anchor="middle" x="1173" y="-99.8" font-family="Times,serif" font-size="14.00" fill="#000000">CitiesCountiesService</text>
</g>
<!-- CitiesCountiesService&#45;&gt;CoreModule -->
<g id="edge4" class="edge">
<title>CitiesCountiesService&#45;&gt;CoreModule</title>
<path fill="none" stroke="#000000" d="M1173,-122.0091C1173,-138.0494 1173,-159 1173,-159 1173,-159 1006.4649,-159 1006.4649,-159"/>
<polygon fill="#000000" stroke="#000000" points="1006.465,-155.5001 996.4649,-159 1006.4649,-162.5001 1006.465,-155.5001"/>
</g>
<!-- ErrorHandlerInterceptor -->
<g id="node4" class="node">
<title>ErrorHandlerInterceptor</title>
<ellipse fill="#fdb462" stroke="#000000" cx="953" cy="-104" rx="104.7327" ry="18"/>
<text text-anchor="middle" x="953" y="-99.8" font-family="Times,serif" font-size="14.00" fill="#000000">ErrorHandlerInterceptor</text>
</g>
<!-- ErrorHandlerInterceptor&#45;&gt;CoreModule -->
<g id="edge5" class="edge">
<title>ErrorHandlerInterceptor&#45;&gt;CoreModule</title>
<path fill="none" stroke="#000000" d="M967.4603,-122.1061C967.4603,-122.1061 967.4603,-140.991 967.4603,-140.991"/>
<polygon fill="#000000" stroke="#000000" points="963.9604,-140.9909 967.4603,-150.991 970.9604,-140.991 963.9604,-140.9909"/>
</g>
<!-- ErrorHandlerInterceptor&#45;&gt;CoreModule -->
<g id="edge6" class="edge">
<title>ErrorHandlerInterceptor&#45;&gt;CoreModule</title>
<path fill="none" stroke="#000000" d="M938.5397,-122.1061C938.5397,-122.1061 938.5397,-140.991 938.5397,-140.991"/>
<polygon fill="#000000" stroke="#000000" points="935.0398,-140.9909 938.5397,-150.991 942.0398,-140.991 935.0398,-140.9909"/>
</g>
<!-- ErrorMessageService -->
<g id="node5" class="node">
<title>ErrorMessageService</title>
<ellipse fill="#fdb462" stroke="#000000" cx="736" cy="-104" rx="94.2963" ry="18"/>
<text text-anchor="middle" x="736" y="-99.8" font-family="Times,serif" font-size="14.00" fill="#000000">ErrorMessageService</text>
</g>
<!-- ErrorMessageService&#45;&gt;CoreModule -->
<g id="edge7" class="edge">
<title>ErrorMessageService&#45;&gt;CoreModule</title>
<path fill="none" stroke="#000000" d="M736,-122.2396C736,-137.5706 736,-157 736,-157 736,-157 899.6084,-157 899.6084,-157"/>
<polygon fill="#000000" stroke="#000000" points="899.6084,-160.5001 909.6084,-157 899.6083,-153.5001 899.6084,-160.5001"/>
</g>
<!-- FiltersService -->
<g id="node6" class="node">
<title>FiltersService</title>
<ellipse fill="#fdb462" stroke="#000000" cx="559" cy="-104" rx="64.837" ry="18"/>
<text text-anchor="middle" x="559" y="-99.8" font-family="Times,serif" font-size="14.00" fill="#000000">FiltersService</text>
</g>
<!-- FiltersService&#45;&gt;CoreModule -->
<g id="edge8" class="edge">
<title>FiltersService&#45;&gt;CoreModule</title>
<path fill="none" stroke="#000000" d="M559,-122.0225C559,-139.3734 559,-163 559,-163 559,-163 899.7081,-163 899.7081,-163"/>
<polygon fill="#000000" stroke="#000000" points="899.7081,-166.5001 909.7081,-163 899.708,-159.5001 899.7081,-166.5001"/>
</g>
<!-- LocalStorageService -->
<g id="node7" class="node">
<title>LocalStorageService</title>
<ellipse fill="#fdb462" stroke="#000000" cx="385" cy="-104" rx="91.4481" ry="18"/>
<text text-anchor="middle" x="385" y="-99.8" font-family="Times,serif" font-size="14.00" fill="#000000">LocalStorageService</text>
</g>
<!-- LocalStorageService&#45;&gt;CoreModule -->
<g id="edge9" class="edge">
<title>LocalStorageService&#45;&gt;CoreModule</title>
<path fill="none" stroke="#000000" d="M385,-122.1061C385,-141.3391 385,-169 385,-169 385,-169 899.3731,-169 899.3731,-169"/>
<polygon fill="#000000" stroke="#000000" points="899.3732,-172.5001 909.3731,-169 899.3731,-165.5001 899.3732,-172.5001"/>
</g>
<!-- UsersService -->
<g id="node8" class="node">
<title>UsersService</title>
<ellipse fill="#fdb462" stroke="#000000" cx="214" cy="-104" rx="61.9519" ry="18"/>
<text text-anchor="middle" x="214" y="-99.8" font-family="Times,serif" font-size="14.00" fill="#000000">UsersService</text>
</g>
<!-- UsersService&#45;&gt;CoreModule -->
<g id="edge10" class="edge">
<title>UsersService&#45;&gt;CoreModule</title>
<path fill="none" stroke="#000000" d="M214,-122.2843C214,-143.3211 214,-175 214,-175 214,-175 899.5311,-175 899.5311,-175"/>
<polygon fill="#000000" stroke="#000000" points="899.5312,-178.5001 909.5311,-175 899.5311,-171.5001 899.5312,-178.5001"/>
</g>
<!-- UtilService -->
<g id="node9" class="node">
<title>UtilService</title>
<ellipse fill="#fdb462" stroke="#000000" cx="79" cy="-104" rx="55.0285" ry="18"/>
<text text-anchor="middle" x="79" y="-99.8" font-family="Times,serif" font-size="14.00" fill="#000000">UtilService</text>
</g>
<!-- UtilService&#45;&gt;CoreModule -->
<g id="edge11" class="edge">
<title>UtilService&#45;&gt;CoreModule</title>
<path fill="none" stroke="#000000" d="M79,-122.0908C79,-145.1328 79,-182 79,-182 79,-182 899.6582,-182 899.6582,-182"/>
<polygon fill="#000000" stroke="#000000" points="899.6582,-185.5001 909.6582,-182 899.6582,-178.5001 899.6582,-185.5001"/>
</g>
</g>
</svg>
