<?xml version="1.0" encoding="utf-8"?>
<!-- Generator: Adobe Illustrator 23.0.4, SVG Export Plug-In . SVG Version: 6.00 Build 0)  -->
<svg version="1.1" id="Layer_1" xmlns="http://www.w3.org/2000/svg" xmlns:xlink="http://www.w3.org/1999/xlink" x="0px" y="0px"
	 viewBox="0 0 500 500" style="enable-background:new 0 0 500 500;" xml:space="preserve">
<style type="text/css">
	.st0{fill:#0000FF;}
	.st1{fill:none;stroke:#533949;stroke-width:2;stroke-miterlimit:10;}
	.st2{fill:none;stroke:#533949;stroke-width:1.971;stroke-miterlimit:10;}
	.st3{fill:#FFCC00;}
	.st4{fill:#352144;}
	.st5{fill:none;stroke:#533949;stroke-width:1.9934;stroke-miterlimit:10;}
	.st6{fill:#352245;}
	.st7{fill:#FBF83C;}
	.st8{fill:#FFCB02;}
	.st9{fill:none;stroke:#533949;stroke-width:0.8333;stroke-miterlimit:10;}
	.st10{fill:none;stroke:#FFCB01;stroke-width:0.8333;stroke-miterlimit:10;}
	.st11{fill:none;stroke:#533949;stroke-width:1.25;stroke-miterlimit:10;}
	.st12{fill:none;stroke:#FFCB01;stroke-width:1.25;stroke-miterlimit:10;}
	.st13{fill:none;stroke:#533949;stroke-width:2.9513;stroke-miterlimit:10;}
	.st14{fill:#533949;}
	.st15{fill:#DAD9FE;}
	.st16{fill:#B5B3FE;}
	.st17{fill:#F2F2FF;}
	.st18{fill:none;stroke:#533949;stroke-miterlimit:10;}
	.st19{fill:#FE3B1F;}
	.st20{fill:#F0D283;}
	.st21{fill:#00269A;}
	.st22{opacity:0.5;fill:none;stroke:#808080;stroke-width:0.25;stroke-miterlimit:10;}
	.st23{fill:#750787;}
	.st24{fill:#004DFF;}
	.st25{fill:#008026;}
	.st26{fill:#FFED00;}
	.st27{fill:#FF8C00;}
	.st28{fill:#E40303;}
	.st29{fill:#D9D9FF;}
	.st30{fill:#B3B3FF;}
	.st31{fill:#E6E6FF;}
	.st32{fill:none;stroke:#0000FF;stroke-width:10;stroke-miterlimit:10;}
</style>
<g>
	<g>
		<polygon class="st0" points="98.76,191.58 81.49,194.12 50,250 81.49,305.88 98.76,308.42 65.24,250 		"/>
		<polygon class="st0" points="143.03,191.58 160.3,194.12 191.79,250 160.3,305.88 143.03,308.42 176.55,250 		"/>
	</g>
	<polygon class="st17" points="98.76,191.58 120.9,189.04 120.9,250 65.24,250 	"/>
	<polygon class="st29" points="98.76,308.42 120.9,310.96 120.9,250 65.24,250 	"/>
	<polygon class="st30" points="143.03,308.42 120.9,310.96 120.9,250 176.55,250 	"/>
	<polygon class="st31" points="143.03,191.58 120.9,189.04 120.9,250 176.55,250 	"/>
	<g>
		<path d="M250.19,240.19c-4.31,0.93-8.19,1.4-11.64,1.4c-3.45,0-6.22-0.43-8.29-1.28c-2.07-0.85-3.7-2.21-4.88-4.08
			c-1.18-1.87-1.99-4.06-2.44-6.58c-0.45-2.52-0.67-5.69-0.67-9.51c0-8.01,1.13-13.58,3.38-16.73c2.26-3.15,6.41-4.72,12.47-4.72
			c3.49,0,7.54,0.55,12.13,1.65l-0.24,6.71c-4.02-0.61-7.37-0.91-10.03-0.91c-2.66,0-4.56,0.36-5.7,1.07
			c-1.14,0.71-1.98,2.06-2.53,4.05c-0.55,1.99-0.82,5.39-0.82,10.18c0,4.8,0.56,8.12,1.68,9.97c1.12,1.85,3.35,2.77,6.7,2.77
			c3.35,0,6.92-0.28,10.7-0.85L250.19,240.19z"/>
		<path d="M257.44,213.82c2.15-2.78,5.75-4.18,10.79-4.18s8.64,1.39,10.79,4.18c2.15,2.78,3.23,6.7,3.23,11.73
			c0,10.69-4.67,16.03-14.02,16.03s-14.02-5.34-14.02-16.03C254.21,220.52,255.29,216.61,257.44,213.82z M263.75,232.44
			c0.83,1.46,2.33,2.19,4.48,2.19s3.65-0.73,4.48-2.19c0.83-1.46,1.25-3.76,1.25-6.89c0-3.13-0.42-5.4-1.25-6.83
			c-0.83-1.42-2.33-2.13-4.48-2.13s-3.65,0.71-4.48,2.13c-0.83,1.42-1.25,3.7-1.25,6.83C262.5,228.69,262.92,230.98,263.75,232.44z"
			/>
		<path d="M314.13,198.19v42.67h-8.11v-1.28c-2.85,1.34-5.3,2.01-7.38,2.01c-4.43,0-7.52-1.28-9.27-3.84
			c-1.75-2.56-2.62-6.61-2.62-12.16c0-5.55,1.05-9.59,3.14-12.13c2.09-2.54,5.25-3.81,9.48-3.81c1.3,0,3.11,0.2,5.42,0.61l1.16,0.24
			v-12.31H314.13z M305.11,233.54l0.85-0.18v-16.03c-2.24-0.41-4.23-0.61-5.97-0.61c-3.29,0-4.94,2.93-4.94,8.78
			c0,3.17,0.37,5.43,1.1,6.77c0.73,1.34,1.94,2.01,3.63,2.01C301.46,234.27,303.24,234.03,305.11,233.54z"/>
		<path d="M329.89,233.15c0.95,0.83,2.33,1.25,4.11,1.25c3.78,0,7.15-0.12,10.12-0.37l1.71-0.18l0.12,6.03
			c-4.67,1.14-8.9,1.71-12.68,1.71c-4.59,0-7.92-1.22-10-3.66c-2.07-2.44-3.11-6.4-3.11-11.89c0-10.93,4.49-16.4,13.47-16.4
			c8.86,0,13.29,4.59,13.29,13.78l-0.61,5.67H328.4C328.43,230.96,328.93,232.31,329.89,233.15z M338.88,222.87
			c0-2.44-0.39-4.13-1.16-5.09c-0.77-0.95-2.12-1.43-4.05-1.43c-1.93,0-3.29,0.5-4.08,1.49c-0.79,1-1.21,2.67-1.25,5.03H338.88z"/>
		<path d="M375.82,217.33v23.53h-8.17v-23.53h-3.29v-6.95h3.29v-1.34c0-4.39,0.65-7.42,1.95-9.08c1.3-1.67,3.62-2.5,6.95-2.5
			c1.46,0,3.35,0.2,5.67,0.61l1.28,0.18l-0.12,6.64c-1.79-0.08-3.29-0.12-4.51-0.12s-2.03,0.33-2.44,0.98
			c-0.41,0.65-0.61,1.77-0.61,3.35v1.28h7.38v6.95H375.82z"/>
		<path d="M389.35,213.82c2.15-2.78,5.75-4.18,10.79-4.18c5.04,0,8.63,1.39,10.79,4.18c2.15,2.78,3.23,6.7,3.23,11.73
			c0,10.69-4.67,16.03-14.02,16.03c-9.35,0-14.02-5.34-14.02-16.03C386.12,220.52,387.19,216.61,389.35,213.82z M395.66,232.44
			c0.83,1.46,2.33,2.19,4.48,2.19s3.65-0.73,4.48-2.19c0.83-1.46,1.25-3.76,1.25-6.89c0-3.13-0.42-5.4-1.25-6.83
			c-0.83-1.42-2.33-2.13-4.48-2.13s-3.65,0.71-4.48,2.13c-0.83,1.42-1.25,3.7-1.25,6.83C394.41,228.69,394.82,230.98,395.66,232.44z
			"/>
		<path d="M420.13,240.86v-30.48h8.11v3.23c3.41-2.03,6.66-3.35,9.75-3.96v8.23c-3.29,0.69-6.12,1.4-8.47,2.13l-1.22,0.43v20.42
			H420.13z"/>
		<path d="M232.33,287.91v13.9h-8.41v-41.45h16.09c9.75,0,14.63,4.55,14.63,13.65c0,5.41-2.03,9.39-6.1,11.95l5.91,15.85h-9.2
			l-4.82-13.9H232.33z M244.58,278.89c0.98-1.22,1.46-2.82,1.46-4.82c0-1.99-0.52-3.58-1.55-4.75c-1.04-1.18-2.53-1.77-4.48-1.77
			h-7.68v13.17h7.8C242.12,280.72,243.6,280.11,244.58,278.89z"/>
		<path d="M262.13,274.78c2.15-2.78,5.75-4.18,10.79-4.18s8.63,1.39,10.79,4.18c2.15,2.78,3.23,6.7,3.23,11.73
			c0,10.69-4.67,16.03-14.02,16.03s-14.02-5.34-14.02-16.03C258.9,281.47,259.98,277.56,262.13,274.78z M268.44,293.4
			c0.83,1.46,2.33,2.19,4.48,2.19s3.65-0.73,4.48-2.19c0.83-1.46,1.25-3.76,1.25-6.89c0-3.13-0.42-5.4-1.25-6.83
			c-0.83-1.42-2.33-2.13-4.48-2.13s-3.65,0.71-4.48,2.13c-0.83,1.42-1.25,3.7-1.25,6.83C267.19,289.64,267.61,291.94,268.44,293.4z"
			/>
		<path d="M301.09,301.81h-8.17v-30.48h8.11v1.71c2.8-1.63,5.2-2.44,7.19-2.44c3.29,0,5.83,0.96,7.62,2.87
			c3.74-1.91,7.15-2.87,10.24-2.87c4.02,0,6.82,1.17,8.38,3.51c1.56,2.34,2.35,6.07,2.35,11.19v16.52h-8.17v-16.28
			c0-2.6-0.28-4.52-0.85-5.76c-0.57-1.24-1.71-1.86-3.41-1.86c-1.3,0-2.89,0.28-4.75,0.85l-0.91,0.31c0.16,3.05,0.24,5.36,0.24,6.95
			v15.79h-8.17v-15.67c0-3.01-0.26-5.13-0.79-6.37c-0.53-1.24-1.69-1.86-3.47-1.86c-1.58,0-3.15,0.28-4.69,0.85l-0.73,0.24V301.81z"
			/>
		<path d="M367.41,280.84v12.68c0.08,0.98,0.24,1.66,0.49,2.04c0.24,0.39,0.75,0.66,1.52,0.82l-0.24,6.16
			c-2.07,0-3.73-0.14-4.97-0.43c-1.24-0.28-2.49-0.85-3.75-1.71c-2.93,1.42-5.91,2.13-8.96,2.13c-6.3,0-9.45-3.33-9.45-10
			c0-3.25,0.87-5.56,2.62-6.92c1.75-1.36,4.43-2.16,8.05-2.41l6.52-0.49v-1.89c0-1.26-0.29-2.12-0.85-2.59
			c-0.57-0.47-1.48-0.7-2.74-0.7l-11.46,0.49l-0.24-5.67c4.35-1.18,8.48-1.77,12.4-1.77s6.75,0.81,8.47,2.44
			C366.54,274.67,367.41,277.27,367.41,280.84z M353.69,288.89c-2.28,0.2-3.41,1.42-3.41,3.66c0,2.24,1,3.35,2.99,3.35
			c1.54,0,3.23-0.24,5.06-0.73l0.91-0.24v-6.52L353.69,288.89z"/>
		<path d="M383.37,301.81h-8.17v-30.48h8.11v1.71c2.76-1.63,5.3-2.44,7.62-2.44c4.06,0,6.87,1.2,8.41,3.6
			c1.54,2.4,2.32,6.1,2.32,11.09v16.52h-8.17v-16.28c0-2.6-0.31-4.52-0.91-5.76c-0.61-1.24-1.83-1.86-3.66-1.86
			c-1.67,0-3.27,0.28-4.82,0.85l-0.73,0.24V301.81z"/>
		<path d="M408.92,267.43v-8.29h8.17v8.29H408.92z M408.92,301.81v-30.48h8.17v30.48H408.92z"/>
		<path d="M447.99,280.84v12.68c0.08,0.98,0.24,1.66,0.49,2.04c0.24,0.39,0.75,0.66,1.52,0.82l-0.24,6.16
			c-2.07,0-3.73-0.14-4.97-0.43c-1.24-0.28-2.49-0.85-3.75-1.71c-2.92,1.42-5.91,2.13-8.96,2.13c-6.3,0-9.45-3.33-9.45-10
			c0-3.25,0.87-5.56,2.62-6.92c1.75-1.36,4.43-2.16,8.05-2.41l6.52-0.49v-1.89c0-1.26-0.28-2.12-0.85-2.59
			c-0.57-0.47-1.48-0.7-2.74-0.7l-11.46,0.49l-0.24-5.67c4.35-1.18,8.48-1.77,12.41-1.77c3.92,0,6.74,0.81,8.47,2.44
			C447.12,274.67,447.99,277.27,447.99,280.84z M434.27,288.89c-2.28,0.2-3.41,1.42-3.41,3.66c0,2.24,1,3.35,2.99,3.35
			c1.54,0,3.23-0.24,5.06-0.73l0.91-0.24v-6.52L434.27,288.89z"/>
	</g>
</g>
</svg>
