<?xml version="1.0" encoding="UTF-8" standalone="no"?>
<!DOCTYPE svg PUBLIC "-//W3C//DTD SVG 1.1//EN"
 "http://www.w3.org/Graphics/SVG/1.1/DTD/svg11.dtd">
<!-- Generated by graphviz version 2.40.1 (20161225.0304)
 -->
<!-- Title: dependencies Pages: 1 -->
<svg width="1096pt" height="211pt"
 viewBox="0.00 0.00 1096.00 211.00" xmlns="http://www.w3.org/2000/svg" xmlns:xlink="http://www.w3.org/1999/xlink">
<g id="graph0" class="graph" transform="scale(1 1) rotate(0) translate(4 207)">
<title>dependencies</title>
<polygon fill="#ffffff" stroke="transparent" points="-4,4 -4,-207 1092,-207 1092,4 -4,4"/>
<text text-anchor="start" x="523.0091" y="-42.4" font-family="sans-serif" font-weight="bold" font-size="14.00" fill="#000000">Legend</text>
<polygon fill="#ffffb3" stroke="transparent" points="310,-10 310,-30 330,-30 330,-10 310,-10"/>
<text text-anchor="start" x="333.629" y="-15.4" font-family="sans-serif" font-size="14.00" fill="#000000"> &#160;Declarations</text>
<polygon fill="#8dd3c7" stroke="transparent" points="423,-10 423,-30 443,-30 443,-10 423,-10"/>
<text text-anchor="start" x="446.7251" y="-15.4" font-family="sans-serif" font-size="14.00" fill="#000000"> &#160;Module</text>
<polygon fill="#80b1d3" stroke="transparent" points="509,-10 509,-30 529,-30 529,-10 509,-10"/>
<text text-anchor="start" x="532.7812" y="-15.4" font-family="sans-serif" font-size="14.00" fill="#000000"> &#160;Bootstrap</text>
<polygon fill="#fdb462" stroke="transparent" points="606,-10 606,-30 626,-30 626,-10 606,-10"/>
<text text-anchor="start" x="629.6732" y="-15.4" font-family="sans-serif" font-size="14.00" fill="#000000"> &#160;Providers</text>
<polygon fill="#fb8072" stroke="transparent" points="702,-10 702,-30 722,-30 722,-10 702,-10"/>
<text text-anchor="start" x="725.7258" y="-15.4" font-family="sans-serif" font-size="14.00" fill="#000000"> &#160;Exports</text>
<g id="clust1" class="cluster">
<title>cluster_UsersModule</title>
<polygon fill="none" stroke="#000000" stroke-dasharray="1,5" points="8,-70 8,-195 1080,-195 1080,-70 8,-70"/>
</g>
<g id="clust2" class="cluster">
<title>cluster_UsersModule_declarations</title>
<polygon fill="none" stroke="#000000" points="292,-78 292,-130 1072,-130 1072,-78 292,-78"/>
</g>
<g id="clust8" class="cluster">
<title>cluster_UsersModule_imports</title>
<polygon fill="none" stroke="#000000" points="16,-78 16,-130 284,-130 284,-78 16,-78"/>
</g>
<!-- AddUserComponent -->
<g id="node1" class="node">
<title>AddUserComponent</title>
<polygon fill="#ffffb3" stroke="#000000" points="1063.8655,-122 932.1345,-122 932.1345,-86 1063.8655,-86 1063.8655,-122"/>
<text text-anchor="middle" x="998" y="-99.8" font-family="Times,serif" font-size="14.00" fill="#000000">AddUserComponent</text>
</g>
<!-- UsersModule -->
<g id="node6" class="node">
<title>UsersModule</title>
<polygon fill="#8dd3c7" stroke="#000000" points="550.9218,-187 547.9218,-191 526.9218,-191 523.9218,-187 459.0782,-187 459.0782,-151 550.9218,-151 550.9218,-187"/>
<text text-anchor="middle" x="505" y="-164.8" font-family="Times,serif" font-size="14.00" fill="#000000">UsersModule</text>
</g>
<!-- AddUserComponent&#45;&gt;UsersModule -->
<g id="edge1" class="edge">
<title>AddUserComponent&#45;&gt;UsersModule</title>
<path fill="none" stroke="#000000" d="M998,-122.2921C998,-144.2057 998,-178 998,-178 998,-178 560.9375,-178 560.9375,-178"/>
<polygon fill="#000000" stroke="#000000" points="560.9376,-174.5001 550.9375,-178 560.9375,-181.5001 560.9376,-174.5001"/>
</g>
<!-- EditUserComponent -->
<g id="node2" class="node">
<title>EditUserComponent</title>
<polygon fill="#ffffb3" stroke="#000000" points="914.5926,-122 783.4074,-122 783.4074,-86 914.5926,-86 914.5926,-122"/>
<text text-anchor="middle" x="849" y="-99.8" font-family="Times,serif" font-size="14.00" fill="#000000">EditUserComponent</text>
</g>
<!-- EditUserComponent&#45;&gt;UsersModule -->
<g id="edge2" class="edge">
<title>EditUserComponent&#45;&gt;UsersModule</title>
<path fill="none" stroke="#000000" d="M849,-122.1061C849,-141.3391 849,-169 849,-169 849,-169 561.0364,-169 561.0364,-169"/>
<polygon fill="#000000" stroke="#000000" points="561.0365,-165.5001 551.0364,-169 561.0364,-172.5001 561.0365,-165.5001"/>
</g>
<!-- UserDashboardComponent -->
<g id="node3" class="node">
<title>UserDashboardComponent</title>
<polygon fill="#ffffb3" stroke="#000000" points="765.4003,-122 596.5997,-122 596.5997,-86 765.4003,-86 765.4003,-122"/>
<text text-anchor="middle" x="681" y="-99.8" font-family="Times,serif" font-size="14.00" fill="#000000">UserDashboardComponent</text>
</g>
<!-- UserDashboardComponent&#45;&gt;UsersModule -->
<g id="edge3" class="edge">
<title>UserDashboardComponent&#45;&gt;UsersModule</title>
<path fill="none" stroke="#000000" d="M681,-122.027C681,-138.3976 681,-160 681,-160 681,-160 560.7825,-160 560.7825,-160"/>
<polygon fill="#000000" stroke="#000000" points="560.7825,-156.5001 550.7825,-160 560.7824,-163.5001 560.7825,-156.5001"/>
</g>
<!-- UserDetailsComponent -->
<g id="node4" class="node">
<title>UserDetailsComponent</title>
<polygon fill="#ffffb3" stroke="#000000" points="578.9116,-122 431.0884,-122 431.0884,-86 578.9116,-86 578.9116,-122"/>
<text text-anchor="middle" x="505" y="-99.8" font-family="Times,serif" font-size="14.00" fill="#000000">UserDetailsComponent</text>
</g>
<!-- UserDetailsComponent&#45;&gt;UsersModule -->
<g id="edge4" class="edge">
<title>UserDetailsComponent&#45;&gt;UsersModule</title>
<path fill="none" stroke="#000000" d="M505,-122.1061C505,-122.1061 505,-140.991 505,-140.991"/>
<polygon fill="#000000" stroke="#000000" points="501.5001,-140.9909 505,-150.991 508.5001,-140.991 501.5001,-140.9909"/>
</g>
<!-- UsersComponent -->
<g id="node5" class="node">
<title>UsersComponent</title>
<polygon fill="#ffffb3" stroke="#000000" points="413.7036,-122 300.2964,-122 300.2964,-86 413.7036,-86 413.7036,-122"/>
<text text-anchor="middle" x="357" y="-99.8" font-family="Times,serif" font-size="14.00" fill="#000000">UsersComponent</text>
</g>
<!-- UsersComponent&#45;&gt;UsersModule -->
<g id="edge5" class="edge">
<title>UsersComponent&#45;&gt;UsersModule</title>
<path fill="none" stroke="#000000" d="M357,-122.027C357,-138.3976 357,-160 357,-160 357,-160 448.9832,-160 448.9832,-160"/>
<polygon fill="#000000" stroke="#000000" points="448.9832,-163.5001 458.9832,-160 448.9831,-156.5001 448.9832,-163.5001"/>
</g>
<!-- SharedModule -->
<g id="node7" class="node">
<title>SharedModule</title>
<polygon fill="#8dd3c7" stroke="#000000" points="276.4231,-122 273.4231,-126 252.4231,-126 249.4231,-122 177.5769,-122 177.5769,-86 276.4231,-86 276.4231,-122"/>
<text text-anchor="middle" x="227" y="-99.8" font-family="Times,serif" font-size="14.00" fill="#000000">SharedModule</text>
</g>
<!-- SharedModule&#45;&gt;UsersModule -->
<g id="edge6" class="edge">
<title>SharedModule&#45;&gt;UsersModule</title>
<path fill="none" stroke="#000000" d="M227,-122.1061C227,-141.3391 227,-169 227,-169 227,-169 449.094,-169 449.094,-169"/>
<polygon fill="#000000" stroke="#000000" points="449.094,-172.5001 459.094,-169 449.0939,-165.5001 449.094,-172.5001"/>
</g>
<!-- UsersRoutingModule -->
<g id="node8" class="node">
<title>UsersRoutingModule</title>
<polygon fill="#8dd3c7" stroke="#000000" points="160.0394,-122 157.0394,-126 136.0394,-126 133.0394,-122 23.9606,-122 23.9606,-86 160.0394,-86 160.0394,-122"/>
<text text-anchor="middle" x="92" y="-99.8" font-family="Times,serif" font-size="14.00" fill="#000000">UsersRoutingModule</text>
</g>
<!-- UsersRoutingModule&#45;&gt;UsersModule -->
<g id="edge7" class="edge">
<title>UsersRoutingModule&#45;&gt;UsersModule</title>
<path fill="none" stroke="#000000" d="M92,-122.2921C92,-144.2057 92,-178 92,-178 92,-178 449.2238,-178 449.2238,-178"/>
<polygon fill="#000000" stroke="#000000" points="449.2238,-181.5001 459.2238,-178 449.2237,-174.5001 449.2238,-181.5001"/>
</g>
</g>
</svg>
