<?xml version="1.0" encoding="UTF-8" standalone="no"?>
<!DOCTYPE svg PUBLIC "-//W3C//DTD SVG 1.1//EN"
 "http://www.w3.org/Graphics/SVG/1.1/DTD/svg11.dtd">
<!-- Generated by graphviz version 2.40.1 (20161225.0304)
 -->
<!-- Title: dependencies Pages: 1 -->
<svg width="504pt" height="211pt"
 viewBox="0.00 0.00 504.00 211.00" xmlns="http://www.w3.org/2000/svg" xmlns:xlink="http://www.w3.org/1999/xlink">
<g id="graph0" class="graph" transform="scale(1 1) rotate(0) translate(4 207)">
<title>dependencies</title>
<polygon fill="#ffffff" stroke="transparent" points="-4,4 -4,-207 500,-207 500,4 -4,4"/>
<text text-anchor="start" x="227.0091" y="-42.4" font-family="sans-serif" font-weight="bold" font-size="14.00" fill="#000000">Legend</text>
<polygon fill="#ffffb3" stroke="transparent" points="14,-10 14,-30 34,-30 34,-10 14,-10"/>
<text text-anchor="start" x="37.629" y="-15.4" font-family="sans-serif" font-size="14.00" fill="#000000"> &#160;Declarations</text>
<polygon fill="#8dd3c7" stroke="transparent" points="127,-10 127,-30 147,-30 147,-10 127,-10"/>
<text text-anchor="start" x="150.7251" y="-15.4" font-family="sans-serif" font-size="14.00" fill="#000000"> &#160;Module</text>
<polygon fill="#80b1d3" stroke="transparent" points="213,-10 213,-30 233,-30 233,-10 213,-10"/>
<text text-anchor="start" x="236.7812" y="-15.4" font-family="sans-serif" font-size="14.00" fill="#000000"> &#160;Bootstrap</text>
<polygon fill="#fdb462" stroke="transparent" points="310,-10 310,-30 330,-30 330,-10 310,-10"/>
<text text-anchor="start" x="333.6732" y="-15.4" font-family="sans-serif" font-size="14.00" fill="#000000"> &#160;Providers</text>
<polygon fill="#fb8072" stroke="transparent" points="406,-10 406,-30 426,-30 426,-10 406,-10"/>
<text text-anchor="start" x="429.7258" y="-15.4" font-family="sans-serif" font-size="14.00" fill="#000000"> &#160;Exports</text>
<g id="clust1" class="cluster">
<title>cluster_InfoModule</title>
<polygon fill="none" stroke="#000000" stroke-dasharray="1,5" points="104,-70 104,-195 392,-195 392,-70 104,-70"/>
</g>
<g id="clust2" class="cluster">
<title>cluster_InfoModule_declarations</title>
<polygon fill="none" stroke="#000000" points="264,-78 264,-130 384,-130 384,-78 264,-78"/>
</g>
<g id="clust4" class="cluster">
<title>cluster_InfoModule_imports</title>
<polygon fill="none" stroke="#000000" points="112,-78 112,-130 256,-130 256,-78 112,-78"/>
</g>
<!-- InfoComponent -->
<g id="node1" class="node">
<title>InfoComponent</title>
<polygon fill="#ffffb3" stroke="#000000" points="376.1542,-122 271.8458,-122 271.8458,-86 376.1542,-86 376.1542,-122"/>
<text text-anchor="middle" x="324" y="-99.8" font-family="Times,serif" font-size="14.00" fill="#000000">InfoComponent</text>
</g>
<!-- InfoModule -->
<g id="node2" class="node">
<title>InfoModule</title>
<polygon fill="#8dd3c7" stroke="#000000" points="295.3711,-187 292.3711,-191 271.3711,-191 268.3711,-187 212.6289,-187 212.6289,-151 295.3711,-151 295.3711,-187"/>
<text text-anchor="middle" x="254" y="-164.8" font-family="Times,serif" font-size="14.00" fill="#000000">InfoModule</text>
</g>
<!-- InfoComponent&#45;&gt;InfoModule -->
<g id="edge1" class="edge">
<title>InfoComponent&#45;&gt;InfoModule</title>
<path fill="none" stroke="#000000" d="M283.5544,-122.1061C283.5544,-122.1061 283.5544,-140.991 283.5544,-140.991"/>
<polygon fill="#000000" stroke="#000000" points="280.0544,-140.9909 283.5544,-150.991 287.0544,-140.991 280.0544,-140.9909"/>
</g>
<!-- InfoRoutingModule -->
<g id="node3" class="node">
<title>InfoRoutingModule</title>
<polygon fill="#8dd3c7" stroke="#000000" points="247.9888,-122 244.9888,-126 223.9888,-126 220.9888,-122 120.0112,-122 120.0112,-86 247.9888,-86 247.9888,-122"/>
<text text-anchor="middle" x="184" y="-99.8" font-family="Times,serif" font-size="14.00" fill="#000000">InfoRoutingModule</text>
</g>
<!-- InfoRoutingModule&#45;&gt;InfoModule -->
<g id="edge2" class="edge">
<title>InfoRoutingModule&#45;&gt;InfoModule</title>
<path fill="none" stroke="#000000" d="M230.2795,-122.1061C230.2795,-122.1061 230.2795,-140.991 230.2795,-140.991"/>
<polygon fill="#000000" stroke="#000000" points="226.7795,-140.9909 230.2795,-150.991 233.7795,-140.991 226.7795,-140.9909"/>
</g>
</g>
</svg>
