<?xml version="1.0" encoding="UTF-8" standalone="no"?>
<!DOCTYPE svg PUBLIC "-//W3C//DTD SVG 1.1//EN"
 "http://www.w3.org/Graphics/SVG/1.1/DTD/svg11.dtd">
<!-- Generated by graphviz version 2.40.1 (20161225.0304)
 -->
<!-- Title: dependencies Pages: 1 -->
<svg width="1022pt" height="211pt"
 viewBox="0.00 0.00 1022.00 211.00" xmlns="http://www.w3.org/2000/svg" xmlns:xlink="http://www.w3.org/1999/xlink">
<g id="graph0" class="graph" transform="scale(1 1) rotate(0) translate(4 207)">
<title>dependencies</title>
<polygon fill="#ffffff" stroke="transparent" points="-4,4 -4,-207 1018,-207 1018,4 -4,4"/>
<text text-anchor="start" x="486.0091" y="-42.4" font-family="sans-serif" font-weight="bold" font-size="14.00" fill="#000000">Legend</text>
<polygon fill="#ffffb3" stroke="transparent" points="273,-10 273,-30 293,-30 293,-10 273,-10"/>
<text text-anchor="start" x="296.629" y="-15.4" font-family="sans-serif" font-size="14.00" fill="#000000"> &#160;Declarations</text>
<polygon fill="#8dd3c7" stroke="transparent" points="386,-10 386,-30 406,-30 406,-10 386,-10"/>
<text text-anchor="start" x="409.7251" y="-15.4" font-family="sans-serif" font-size="14.00" fill="#000000"> &#160;Module</text>
<polygon fill="#80b1d3" stroke="transparent" points="472,-10 472,-30 492,-30 492,-10 472,-10"/>
<text text-anchor="start" x="495.7812" y="-15.4" font-family="sans-serif" font-size="14.00" fill="#000000"> &#160;Bootstrap</text>
<polygon fill="#fdb462" stroke="transparent" points="569,-10 569,-30 589,-30 589,-10 569,-10"/>
<text text-anchor="start" x="592.6732" y="-15.4" font-family="sans-serif" font-size="14.00" fill="#000000"> &#160;Providers</text>
<polygon fill="#fb8072" stroke="transparent" points="665,-10 665,-30 685,-30 685,-10 665,-10"/>
<text text-anchor="start" x="688.7258" y="-15.4" font-family="sans-serif" font-size="14.00" fill="#000000"> &#160;Exports</text>
<g id="clust1" class="cluster">
<title>cluster_AuthenticationModule</title>
<polygon fill="none" stroke="#000000" stroke-dasharray="1,5" points="8,-70 8,-195 1006,-195 1006,-70 8,-70"/>
</g>
<g id="clust2" class="cluster">
<title>cluster_AuthenticationModule_declarations</title>
<polygon fill="none" stroke="#000000" points="344,-78 344,-130 998,-130 998,-78 344,-78"/>
</g>
<g id="clust7" class="cluster">
<title>cluster_AuthenticationModule_imports</title>
<polygon fill="none" stroke="#000000" points="16,-78 16,-130 336,-130 336,-78 16,-78"/>
</g>
<!-- LoginComponent -->
<g id="node1" class="node">
<title>LoginComponent</title>
<polygon fill="#ffffb3" stroke="#000000" points="990.2758,-122 875.7242,-122 875.7242,-86 990.2758,-86 990.2758,-122"/>
<text text-anchor="middle" x="933" y="-99.8" font-family="Times,serif" font-size="14.00" fill="#000000">LoginComponent</text>
</g>
<!-- AuthenticationModule -->
<g id="node5" class="node">
<title>AuthenticationModule</title>
<polygon fill="#8dd3c7" stroke="#000000" points="565.2534,-187 562.2534,-191 541.2534,-191 538.2534,-187 422.7466,-187 422.7466,-151 565.2534,-151 565.2534,-187"/>
<text text-anchor="middle" x="494" y="-164.8" font-family="Times,serif" font-size="14.00" fill="#000000">AuthenticationModule</text>
</g>
<!-- LoginComponent&#45;&gt;AuthenticationModule -->
<g id="edge1" class="edge">
<title>LoginComponent&#45;&gt;AuthenticationModule</title>
<path fill="none" stroke="#000000" d="M933,-122.2843C933,-143.3211 933,-175 933,-175 933,-175 575.51,-175 575.51,-175"/>
<polygon fill="#000000" stroke="#000000" points="575.51,-171.5001 565.51,-175 575.5099,-178.5001 575.51,-171.5001"/>
</g>
<!-- RecoverPasswordComponent -->
<g id="node2" class="node">
<title>RecoverPasswordComponent</title>
<polygon fill="#ffffb3" stroke="#000000" points="857.6274,-122 676.3726,-122 676.3726,-86 857.6274,-86 857.6274,-122"/>
<text text-anchor="middle" x="767" y="-99.8" font-family="Times,serif" font-size="14.00" fill="#000000">RecoverPasswordComponent</text>
</g>
<!-- RecoverPasswordComponent&#45;&gt;AuthenticationModule -->
<g id="edge2" class="edge">
<title>RecoverPasswordComponent&#45;&gt;AuthenticationModule</title>
<path fill="none" stroke="#000000" d="M767,-122.0225C767,-139.3734 767,-163 767,-163 767,-163 575.3709,-163 575.3709,-163"/>
<polygon fill="#000000" stroke="#000000" points="575.371,-159.5001 565.3709,-163 575.3709,-166.5001 575.371,-159.5001"/>
</g>
<!-- ResetPasswordComponent -->
<g id="node3" class="node">
<title>ResetPasswordComponent</title>
<polygon fill="#ffffb3" stroke="#000000" points="658.087,-122 491.913,-122 491.913,-86 658.087,-86 658.087,-122"/>
<text text-anchor="middle" x="575" y="-99.8" font-family="Times,serif" font-size="14.00" fill="#000000">ResetPasswordComponent</text>
</g>
<!-- ResetPasswordComponent&#45;&gt;AuthenticationModule -->
<g id="edge3" class="edge">
<title>ResetPasswordComponent&#45;&gt;AuthenticationModule</title>
<path fill="none" stroke="#000000" d="M528.6666,-122.1061C528.6666,-122.1061 528.6666,-140.991 528.6666,-140.991"/>
<polygon fill="#000000" stroke="#000000" points="525.1666,-140.9909 528.6666,-150.991 532.1666,-140.991 525.1666,-140.9909"/>
</g>
<!-- SignupComponent -->
<g id="node4" class="node">
<title>SignupComponent</title>
<polygon fill="#ffffb3" stroke="#000000" points="473.5056,-122 352.4944,-122 352.4944,-86 473.5056,-86 473.5056,-122"/>
<text text-anchor="middle" x="413" y="-99.8" font-family="Times,serif" font-size="14.00" fill="#000000">SignupComponent</text>
</g>
<!-- SignupComponent&#45;&gt;AuthenticationModule -->
<g id="edge4" class="edge">
<title>SignupComponent&#45;&gt;AuthenticationModule</title>
<path fill="none" stroke="#000000" d="M448.0631,-122.1061C448.0631,-122.1061 448.0631,-140.991 448.0631,-140.991"/>
<polygon fill="#000000" stroke="#000000" points="444.5632,-140.9909 448.0631,-150.991 451.5632,-140.991 444.5632,-140.9909"/>
</g>
<!-- AuthenticationRoutingModule -->
<g id="node6" class="node">
<title>AuthenticationRoutingModule</title>
<polygon fill="#8dd3c7" stroke="#000000" points="327.871,-122 324.871,-126 303.871,-126 300.871,-122 140.129,-122 140.129,-86 327.871,-86 327.871,-122"/>
<text text-anchor="middle" x="234" y="-99.8" font-family="Times,serif" font-size="14.00" fill="#000000">AuthenticationRoutingModule</text>
</g>
<!-- AuthenticationRoutingModule&#45;&gt;AuthenticationModule -->
<g id="edge5" class="edge">
<title>AuthenticationRoutingModule&#45;&gt;AuthenticationModule</title>
<path fill="none" stroke="#000000" d="M234,-122.0225C234,-139.3734 234,-163 234,-163 234,-163 412.61,-163 412.61,-163"/>
<polygon fill="#000000" stroke="#000000" points="412.61,-166.5001 422.61,-163 412.6099,-159.5001 412.61,-166.5001"/>
</g>
<!-- SharedModule -->
<g id="node7" class="node">
<title>SharedModule</title>
<polygon fill="#8dd3c7" stroke="#000000" points="122.4231,-122 119.4231,-126 98.4231,-126 95.4231,-122 23.5769,-122 23.5769,-86 122.4231,-86 122.4231,-122"/>
<text text-anchor="middle" x="73" y="-99.8" font-family="Times,serif" font-size="14.00" fill="#000000">SharedModule</text>
</g>
<!-- SharedModule&#45;&gt;AuthenticationModule -->
<g id="edge6" class="edge">
<title>SharedModule&#45;&gt;AuthenticationModule</title>
<path fill="none" stroke="#000000" d="M73,-122.2843C73,-143.3211 73,-175 73,-175 73,-175 412.5831,-175 412.5831,-175"/>
<polygon fill="#000000" stroke="#000000" points="412.5831,-178.5001 422.5831,-175 412.5831,-171.5001 412.5831,-178.5001"/>
</g>
</g>
</svg>
