<?xml version="1.0" encoding="UTF-8" standalone="no"?>
<!DOCTYPE svg PUBLIC "-//W3C//DTD SVG 1.1//EN"
 "http://www.w3.org/Graphics/SVG/1.1/DTD/svg11.dtd">
<!-- Generated by graphviz version 2.40.1 (20161225.0304)
 -->
<!-- Title: dependencies Pages: 1 -->
<svg width="1524pt" height="211pt"
 viewBox="0.00 0.00 1524.00 211.00" xmlns="http://www.w3.org/2000/svg" xmlns:xlink="http://www.w3.org/1999/xlink">
<g id="graph0" class="graph" transform="scale(1 1) rotate(0) translate(4 207)">
<title>dependencies</title>
<polygon fill="#ffffff" stroke="transparent" points="-4,4 -4,-207 1520,-207 1520,4 -4,4"/>
<text text-anchor="start" x="737.0091" y="-42.4" font-family="sans-serif" font-weight="bold" font-size="14.00" fill="#000000">Legend</text>
<polygon fill="#ffffb3" stroke="transparent" points="524,-10 524,-30 544,-30 544,-10 524,-10"/>
<text text-anchor="start" x="547.629" y="-15.4" font-family="sans-serif" font-size="14.00" fill="#000000"> &#160;Declarations</text>
<polygon fill="#8dd3c7" stroke="transparent" points="637,-10 637,-30 657,-30 657,-10 637,-10"/>
<text text-anchor="start" x="660.7251" y="-15.4" font-family="sans-serif" font-size="14.00" fill="#000000"> &#160;Module</text>
<polygon fill="#80b1d3" stroke="transparent" points="723,-10 723,-30 743,-30 743,-10 723,-10"/>
<text text-anchor="start" x="746.7812" y="-15.4" font-family="sans-serif" font-size="14.00" fill="#000000"> &#160;Bootstrap</text>
<polygon fill="#fdb462" stroke="transparent" points="820,-10 820,-30 840,-30 840,-10 820,-10"/>
<text text-anchor="start" x="843.6732" y="-15.4" font-family="sans-serif" font-size="14.00" fill="#000000"> &#160;Providers</text>
<polygon fill="#fb8072" stroke="transparent" points="916,-10 916,-30 936,-30 936,-10 916,-10"/>
<text text-anchor="start" x="939.7258" y="-15.4" font-family="sans-serif" font-size="14.00" fill="#000000"> &#160;Exports</text>
<g id="clust1" class="cluster">
<title>cluster_OrganisationsModule</title>
<polygon fill="none" stroke="#000000" stroke-dasharray="1,5" points="8,-70 8,-195 1508,-195 1508,-70 8,-70"/>
</g>
<g id="clust2" class="cluster">
<title>cluster_OrganisationsModule_declarations</title>
<polygon fill="none" stroke="#000000" points="542,-78 542,-130 1500,-130 1500,-78 542,-78"/>
</g>
<g id="clust8" class="cluster">
<title>cluster_OrganisationsModule_imports</title>
<polygon fill="none" stroke="#000000" points="220,-78 220,-130 534,-130 534,-78 220,-78"/>
</g>
<g id="clust11" class="cluster">
<title>cluster_OrganisationsModule_providers</title>
<polygon fill="none" stroke="#000000" points="16,-78 16,-130 212,-130 212,-78 16,-78"/>
</g>
<!-- NgodetailsComponent -->
<g id="node1" class="node">
<title>NgodetailsComponent</title>
<polygon fill="#ffffb3" stroke="#000000" points="1491.9846,-122 1350.0154,-122 1350.0154,-86 1491.9846,-86 1491.9846,-122"/>
<text text-anchor="middle" x="1421" y="-99.8" font-family="Times,serif" font-size="14.00" fill="#000000">NgodetailsComponent</text>
</g>
<!-- OrganisationsModule -->
<g id="node6" class="node">
<title>OrganisationsModule</title>
<polygon fill="#8dd3c7" stroke="#000000" points="831.8075,-187 828.8075,-191 807.8075,-191 804.8075,-187 694.1925,-187 694.1925,-151 831.8075,-151 831.8075,-187"/>
<text text-anchor="middle" x="763" y="-164.8" font-family="Times,serif" font-size="14.00" fill="#000000">OrganisationsModule</text>
</g>
<!-- NgodetailsComponent&#45;&gt;OrganisationsModule -->
<g id="edge1" class="edge">
<title>NgodetailsComponent&#45;&gt;OrganisationsModule</title>
<path fill="none" stroke="#000000" d="M1421,-122.2921C1421,-144.2057 1421,-178 1421,-178 1421,-178 841.8644,-178 841.8644,-178"/>
<polygon fill="#000000" stroke="#000000" points="841.8644,-174.5001 831.8644,-178 841.8643,-181.5001 841.8644,-174.5001"/>
</g>
<!-- OrganisationEditComponent -->
<g id="node2" class="node">
<title>OrganisationEditComponent</title>
<polygon fill="#ffffb3" stroke="#000000" points="1332.479,-122 1155.521,-122 1155.521,-86 1332.479,-86 1332.479,-122"/>
<text text-anchor="middle" x="1244" y="-99.8" font-family="Times,serif" font-size="14.00" fill="#000000">OrganisationEditComponent</text>
</g>
<!-- OrganisationEditComponent&#45;&gt;OrganisationsModule -->
<g id="edge2" class="edge">
<title>OrganisationEditComponent&#45;&gt;OrganisationsModule</title>
<path fill="none" stroke="#000000" d="M1244,-122.1061C1244,-141.3391 1244,-169 1244,-169 1244,-169 841.66,-169 841.66,-169"/>
<polygon fill="#000000" stroke="#000000" points="841.66,-165.5001 831.66,-169 841.6599,-172.5001 841.66,-165.5001"/>
</g>
<!-- OrganisationaddComponent -->
<g id="node3" class="node">
<title>OrganisationaddComponent</title>
<polygon fill="#ffffb3" stroke="#000000" points="1137.8599,-122 964.1401,-122 964.1401,-86 1137.8599,-86 1137.8599,-122"/>
<text text-anchor="middle" x="1051" y="-99.8" font-family="Times,serif" font-size="14.00" fill="#000000">OrganisationaddComponent</text>
</g>
<!-- OrganisationaddComponent&#45;&gt;OrganisationsModule -->
<g id="edge3" class="edge">
<title>OrganisationaddComponent&#45;&gt;OrganisationsModule</title>
<path fill="none" stroke="#000000" d="M1051,-122.027C1051,-138.3976 1051,-160 1051,-160 1051,-160 841.9832,-160 841.9832,-160"/>
<polygon fill="#000000" stroke="#000000" points="841.9832,-156.5001 831.9832,-160 841.9831,-163.5001 841.9832,-156.5001"/>
</g>
<!-- OrganisationsComponent -->
<g id="node4" class="node">
<title>OrganisationsComponent</title>
<polygon fill="#ffffb3" stroke="#000000" points="946.5898,-122 787.4102,-122 787.4102,-86 946.5898,-86 946.5898,-122"/>
<text text-anchor="middle" x="867" y="-99.8" font-family="Times,serif" font-size="14.00" fill="#000000">OrganisationsComponent</text>
</g>
<!-- OrganisationsComponent&#45;&gt;OrganisationsModule -->
<g id="edge4" class="edge">
<title>OrganisationsComponent&#45;&gt;OrganisationsModule</title>
<path fill="none" stroke="#000000" d="M809.5544,-122.1061C809.5544,-122.1061 809.5544,-140.991 809.5544,-140.991"/>
<polygon fill="#000000" stroke="#000000" points="806.0544,-140.9909 809.5544,-150.991 813.0544,-140.991 806.0544,-140.9909"/>
</g>
<!-- OrganisationsDashboardComponent -->
<g id="node5" class="node">
<title>OrganisationsDashboardComponent</title>
<polygon fill="#ffffb3" stroke="#000000" points="769.731,-122 550.269,-122 550.269,-86 769.731,-86 769.731,-122"/>
<text text-anchor="middle" x="660" y="-99.8" font-family="Times,serif" font-size="14.00" fill="#000000">OrganisationsDashboardComponent</text>
</g>
<!-- OrganisationsDashboardComponent&#45;&gt;OrganisationsModule -->
<g id="edge5" class="edge">
<title>OrganisationsDashboardComponent&#45;&gt;OrganisationsModule</title>
<path fill="none" stroke="#000000" d="M732.1059,-122.1061C732.1059,-122.1061 732.1059,-140.991 732.1059,-140.991"/>
<polygon fill="#000000" stroke="#000000" points="728.606,-140.9909 732.1059,-150.991 735.606,-140.991 728.606,-140.9909"/>
</g>
<!-- OrganisationsRoutingModule -->
<g id="node7" class="node">
<title>OrganisationsRoutingModule</title>
<polygon fill="#8dd3c7" stroke="#000000" points="526.4255,-122 523.4255,-126 502.4255,-126 499.4255,-122 343.5745,-122 343.5745,-86 526.4255,-86 526.4255,-122"/>
<text text-anchor="middle" x="435" y="-99.8" font-family="Times,serif" font-size="14.00" fill="#000000">OrganisationsRoutingModule</text>
</g>
<!-- OrganisationsRoutingModule&#45;&gt;OrganisationsModule -->
<g id="edge6" class="edge">
<title>OrganisationsRoutingModule&#45;&gt;OrganisationsModule</title>
<path fill="none" stroke="#000000" d="M435,-122.027C435,-138.3976 435,-160 435,-160 435,-160 684.2405,-160 684.2405,-160"/>
<polygon fill="#000000" stroke="#000000" points="684.2405,-163.5001 694.2405,-160 684.2404,-156.5001 684.2405,-163.5001"/>
</g>
<!-- SharedModule -->
<g id="node8" class="node">
<title>SharedModule</title>
<polygon fill="#8dd3c7" stroke="#000000" points="326.4231,-122 323.4231,-126 302.4231,-126 299.4231,-122 227.5769,-122 227.5769,-86 326.4231,-86 326.4231,-122"/>
<text text-anchor="middle" x="277" y="-99.8" font-family="Times,serif" font-size="14.00" fill="#000000">SharedModule</text>
</g>
<!-- SharedModule&#45;&gt;OrganisationsModule -->
<g id="edge7" class="edge">
<title>SharedModule&#45;&gt;OrganisationsModule</title>
<path fill="none" stroke="#000000" d="M277,-122.1061C277,-141.3391 277,-169 277,-169 277,-169 684.1417,-169 684.1417,-169"/>
<polygon fill="#000000" stroke="#000000" points="684.1417,-172.5001 694.1417,-169 684.1417,-165.5001 684.1417,-172.5001"/>
</g>
<!-- OrganisationService -->
<g id="node9" class="node">
<title>OrganisationService</title>
<ellipse fill="#fdb462" stroke="#000000" cx="114" cy="-104" rx="89.7441" ry="18"/>
<text text-anchor="middle" x="114" y="-99.8" font-family="Times,serif" font-size="14.00" fill="#000000">OrganisationService</text>
</g>
<!-- OrganisationService&#45;&gt;OrganisationsModule -->
<g id="edge8" class="edge">
<title>OrganisationService&#45;&gt;OrganisationsModule</title>
<path fill="none" stroke="#000000" d="M114,-122.2921C114,-144.2057 114,-178 114,-178 114,-178 684.1601,-178 684.1601,-178"/>
<polygon fill="#000000" stroke="#000000" points="684.1601,-181.5001 694.1601,-178 684.16,-174.5001 684.1601,-181.5001"/>
</g>
</g>
</svg>
