<?xml version="1.0" encoding="UTF-8" standalone="no"?>
<!DOCTYPE svg PUBLIC "-//W3C//DTD SVG 1.1//EN"
 "http://www.w3.org/Graphics/SVG/1.1/DTD/svg11.dtd">
<!-- Generated by graphviz version 2.40.1 (20161225.0304)
 -->
<!-- Title: dependencies Pages: 1 -->
<svg width="1472pt" height="211pt"
 viewBox="0.00 0.00 1472.00 211.00" xmlns="http://www.w3.org/2000/svg" xmlns:xlink="http://www.w3.org/1999/xlink">
<g id="graph0" class="graph" transform="scale(1 1) rotate(0) translate(4 207)">
<title>dependencies</title>
<polygon fill="#ffffff" stroke="transparent" points="-4,4 -4,-207 1468,-207 1468,4 -4,4"/>
<text text-anchor="start" x="711.0091" y="-42.4" font-family="sans-serif" font-weight="bold" font-size="14.00" fill="#000000">Legend</text>
<polygon fill="#ffffb3" stroke="transparent" points="498,-10 498,-30 518,-30 518,-10 498,-10"/>
<text text-anchor="start" x="521.629" y="-15.4" font-family="sans-serif" font-size="14.00" fill="#000000"> &#160;Declarations</text>
<polygon fill="#8dd3c7" stroke="transparent" points="611,-10 611,-30 631,-30 631,-10 611,-10"/>
<text text-anchor="start" x="634.7251" y="-15.4" font-family="sans-serif" font-size="14.00" fill="#000000"> &#160;Module</text>
<polygon fill="#80b1d3" stroke="transparent" points="697,-10 697,-30 717,-30 717,-10 697,-10"/>
<text text-anchor="start" x="720.7812" y="-15.4" font-family="sans-serif" font-size="14.00" fill="#000000"> &#160;Bootstrap</text>
<polygon fill="#fdb462" stroke="transparent" points="794,-10 794,-30 814,-30 814,-10 794,-10"/>
<text text-anchor="start" x="817.6732" y="-15.4" font-family="sans-serif" font-size="14.00" fill="#000000"> &#160;Providers</text>
<polygon fill="#fb8072" stroke="transparent" points="890,-10 890,-30 910,-30 910,-10 890,-10"/>
<text text-anchor="start" x="913.7258" y="-15.4" font-family="sans-serif" font-size="14.00" fill="#000000"> &#160;Exports</text>
<g id="clust1" class="cluster">
<title>cluster_VolunteersModule</title>
<polygon fill="none" stroke="#000000" stroke-dasharray="1,5" points="8,-70 8,-195 1456,-195 1456,-70 8,-70"/>
</g>
<g id="clust2" class="cluster">
<title>cluster_VolunteersModule_declarations</title>
<polygon fill="none" stroke="#000000" points="322,-78 322,-130 1448,-130 1448,-78 322,-78"/>
</g>
<g id="clust9" class="cluster">
<title>cluster_VolunteersModule_imports</title>
<polygon fill="none" stroke="#000000" points="16,-78 16,-130 314,-130 314,-78 16,-78"/>
</g>
<!-- AddVolunteerComponent -->
<g id="node1" class="node">
<title>AddVolunteerComponent</title>
<polygon fill="#ffffb3" stroke="#000000" points="1439.9171,-122 1278.0829,-122 1278.0829,-86 1439.9171,-86 1439.9171,-122"/>
<text text-anchor="middle" x="1359" y="-99.8" font-family="Times,serif" font-size="14.00" fill="#000000">AddVolunteerComponent</text>
</g>
<!-- VolunteersModule -->
<g id="node7" class="node">
<title>VolunteersModule</title>
<polygon fill="#8dd3c7" stroke="#000000" points="741.472,-187 738.472,-191 717.472,-191 714.472,-187 620.528,-187 620.528,-151 741.472,-151 741.472,-187"/>
<text text-anchor="middle" x="681" y="-164.8" font-family="Times,serif" font-size="14.00" fill="#000000">VolunteersModule</text>
</g>
<!-- AddVolunteerComponent&#45;&gt;VolunteersModule -->
<g id="edge1" class="edge">
<title>AddVolunteerComponent&#45;&gt;VolunteersModule</title>
<path fill="none" stroke="#000000" d="M1359,-122.2921C1359,-144.2057 1359,-178 1359,-178 1359,-178 751.7647,-178 751.7647,-178"/>
<polygon fill="#000000" stroke="#000000" points="751.7647,-174.5001 741.7647,-178 751.7646,-181.5001 751.7647,-174.5001"/>
</g>
<!-- EditVolunteerComponent -->
<g id="node2" class="node">
<title>EditVolunteerComponent</title>
<polygon fill="#ffffb3" stroke="#000000" points="1260.1442,-122 1099.8558,-122 1099.8558,-86 1260.1442,-86 1260.1442,-122"/>
<text text-anchor="middle" x="1180" y="-99.8" font-family="Times,serif" font-size="14.00" fill="#000000">EditVolunteerComponent</text>
</g>
<!-- EditVolunteerComponent&#45;&gt;VolunteersModule -->
<g id="edge2" class="edge">
<title>EditVolunteerComponent&#45;&gt;VolunteersModule</title>
<path fill="none" stroke="#000000" d="M1180,-122.1061C1180,-141.3391 1180,-169 1180,-169 1180,-169 751.6883,-169 751.6883,-169"/>
<polygon fill="#000000" stroke="#000000" points="751.6884,-165.5001 741.6883,-169 751.6883,-172.5001 751.6884,-165.5001"/>
</g>
<!-- ImportVolunteersComponent -->
<g id="node3" class="node">
<title>ImportVolunteersComponent</title>
<polygon fill="#ffffb3" stroke="#000000" points="1081.3571,-122 900.6429,-122 900.6429,-86 1081.3571,-86 1081.3571,-122"/>
<text text-anchor="middle" x="991" y="-99.8" font-family="Times,serif" font-size="14.00" fill="#000000">ImportVolunteersComponent</text>
</g>
<!-- ImportVolunteersComponent&#45;&gt;VolunteersModule -->
<g id="edge3" class="edge">
<title>ImportVolunteersComponent&#45;&gt;VolunteersModule</title>
<path fill="none" stroke="#000000" d="M991,-122.027C991,-138.3976 991,-160 991,-160 991,-160 751.507,-160 751.507,-160"/>
<polygon fill="#000000" stroke="#000000" points="751.5071,-156.5001 741.507,-160 751.507,-163.5001 751.5071,-156.5001"/>
</g>
<!-- VolunteerDashboardComponent -->
<g id="node4" class="node">
<title>VolunteerDashboardComponent</title>
<polygon fill="#ffffb3" stroke="#000000" points="882.951,-122 685.049,-122 685.049,-86 882.951,-86 882.951,-122"/>
<text text-anchor="middle" x="784" y="-99.8" font-family="Times,serif" font-size="14.00" fill="#000000">VolunteerDashboardComponent</text>
</g>
<!-- VolunteerDashboardComponent&#45;&gt;VolunteersModule -->
<g id="edge4" class="edge">
<title>VolunteerDashboardComponent&#45;&gt;VolunteersModule</title>
<path fill="none" stroke="#000000" d="M713.2552,-122.1061C713.2552,-122.1061 713.2552,-140.991 713.2552,-140.991"/>
<polygon fill="#000000" stroke="#000000" points="709.7553,-140.9909 713.2552,-150.991 716.7553,-140.991 709.7553,-140.9909"/>
</g>
<!-- VolunteerDetailsComponent -->
<g id="node5" class="node">
<title>VolunteerDetailsComponent</title>
<polygon fill="#ffffb3" stroke="#000000" points="667.4622,-122 490.5378,-122 490.5378,-86 667.4622,-86 667.4622,-122"/>
<text text-anchor="middle" x="579" y="-99.8" font-family="Times,serif" font-size="14.00" fill="#000000">VolunteerDetailsComponent</text>
</g>
<!-- VolunteerDetailsComponent&#45;&gt;VolunteersModule -->
<g id="edge5" class="edge">
<title>VolunteerDetailsComponent&#45;&gt;VolunteersModule</title>
<path fill="none" stroke="#000000" d="M643.9976,-122.1061C643.9976,-122.1061 643.9976,-140.991 643.9976,-140.991"/>
<polygon fill="#000000" stroke="#000000" points="640.4976,-140.9909 643.9976,-150.991 647.4976,-140.991 640.4976,-140.9909"/>
</g>
<!-- VolunteersComponent -->
<g id="node6" class="node">
<title>VolunteersComponent</title>
<polygon fill="#ffffb3" stroke="#000000" points="472.2548,-122 329.7452,-122 329.7452,-86 472.2548,-86 472.2548,-122"/>
<text text-anchor="middle" x="401" y="-99.8" font-family="Times,serif" font-size="14.00" fill="#000000">VolunteersComponent</text>
</g>
<!-- VolunteersComponent&#45;&gt;VolunteersModule -->
<g id="edge6" class="edge">
<title>VolunteersComponent&#45;&gt;VolunteersModule</title>
<path fill="none" stroke="#000000" d="M401,-122.027C401,-138.3976 401,-160 401,-160 401,-160 610.2442,-160 610.2442,-160"/>
<polygon fill="#000000" stroke="#000000" points="610.2442,-163.5001 620.2442,-160 610.2441,-156.5001 610.2442,-163.5001"/>
</g>
<!-- SharedModule -->
<g id="node8" class="node">
<title>SharedModule</title>
<polygon fill="#8dd3c7" stroke="#000000" points="306.4231,-122 303.4231,-126 282.4231,-126 279.4231,-122 207.5769,-122 207.5769,-86 306.4231,-86 306.4231,-122"/>
<text text-anchor="middle" x="257" y="-99.8" font-family="Times,serif" font-size="14.00" fill="#000000">SharedModule</text>
</g>
<!-- SharedModule&#45;&gt;VolunteersModule -->
<g id="edge7" class="edge">
<title>SharedModule&#45;&gt;VolunteersModule</title>
<path fill="none" stroke="#000000" d="M257,-122.1061C257,-141.3391 257,-169 257,-169 257,-169 610.2511,-169 610.2511,-169"/>
<polygon fill="#000000" stroke="#000000" points="610.2512,-172.5001 620.2511,-169 610.2511,-165.5001 610.2512,-172.5001"/>
</g>
<!-- VolunteersRoutingModule -->
<g id="node9" class="node">
<title>VolunteersRoutingModule</title>
<polygon fill="#8dd3c7" stroke="#000000" points="190.0898,-122 187.0898,-126 166.0898,-126 163.0898,-122 23.9102,-122 23.9102,-86 190.0898,-86 190.0898,-122"/>
<text text-anchor="middle" x="107" y="-99.8" font-family="Times,serif" font-size="14.00" fill="#000000">VolunteersRoutingModule</text>
</g>
<!-- VolunteersRoutingModule&#45;&gt;VolunteersModule -->
<g id="edge8" class="edge">
<title>VolunteersRoutingModule&#45;&gt;VolunteersModule</title>
<path fill="none" stroke="#000000" d="M107,-122.2921C107,-144.2057 107,-178 107,-178 107,-178 610.3863,-178 610.3863,-178"/>
<polygon fill="#000000" stroke="#000000" points="610.3864,-181.5001 620.3863,-178 610.3863,-174.5001 610.3864,-181.5001"/>
</g>
</g>
</svg>
